<?xml version="1.0" encoding="UTF-8"?>
<svg width="100%" height="100%" version="1.1" viewBox="150 170 420 420" xmlns="http://www.w3.org/2000/svg">
 <path d="m359.33 197.89c-49.488 0-96.949 19.66-131.94 54.652-34.992 34.992-54.648 82.453-54.648 131.94 0 49.488 19.656 96.949 54.648 131.94 34.992 34.992 82.453 54.652 131.94 54.652 49.484 0 96.945-19.66 131.94-54.652 34.992-34.992 54.652-82.453 54.652-131.94 0-49.484-19.66-96.945-54.652-131.94-34.992-34.992-82.453-54.652-131.94-54.652zm93.297 80.508h-0.003906c4.7422 0.14062 9.2383 2.1406 12.508 5.5742 3.2734 3.4336 5.0586 8.0195 4.9648 12.762-0.089844 4.7422-2.0469 9.2539-5.4492 12.559-3.4023 3.3047-7.9688 5.1367-12.711 5.0898-4.7422-0.042968-9.2734-1.957-12.613-5.3242-3.3398-3.3711-5.2109-7.918-5.2148-12.664 0.074219-4.8359 2.0664-9.4414 5.5391-12.809 3.4766-3.3672 8.1406-5.2148 12.977-5.1367zm-145.34 25.387c5.043 0.13281 9.5156 3.2734 11.355 7.9727 1.8398 4.6992 0.68359 10.039-2.9297 13.562-3.6133 3.5195-8.9844 4.5352-13.633 2.5742s-7.6719-6.5156-7.6758-11.559c0.10547-7.0195 5.8633-12.629 12.883-12.551zm-33.152 22.684c37.367 0 25.953 38.266 86.477 38.266-28.746 18.375-60.383-2.9375-64.168-8.5234-4.7344 7.1055-22.211 23.965-22.211 31.777-2.3672 12.172 62.891 18.941 31.586 88.18 12.359-76.484-58.676-58.961-58.203-83.16 0-22.305 22.07-35.047 26-49.633-16.812-9.4727-44.895-3.0312-57.637 8.0508 5.4961-20.504 40.398-24.957 58.254-24.957zm-9.4727 94.289c0 8.1445-57.445 42.621-66.301 44.895 16.828-20.16 35.125-39.043 54.746-56.496 4.8789-4.0273 13.023 5.3516 11.652 11.602zm124.13 26.285c0 11.746-82.547 61.566-95.52 64.5 5.3984-6.8672 47.738-55.645 78.805-81.219 7.0039-5.918 18.656 7.5312 16.715 16.719zm48.305-93.297c-6.8672 10.184-31.918 34.383-31.918 45.652-3.4102 17.43 90.266 27.277 45.367 126.54 17.758-109.91-84.012-84.625-83.586-119.39 0-32.016 31.684-50.293 37.316-71.039-24.152-13.59-64.453-4.4062-82.688 11.508 7.8125-29.41 57.918-35.801 83.586-35.801 53.656 0 37.27 54.934 124.17 54.934-41.434 26.191-87.039-4.3555-92.25-12.406z" fill="#ffcd37"/>
</svg>
